# xmcd
#
# Track frame offsets:
#	150
#	13534
#	32366
#	46886
#	62190
#	82573
#	105756
#	122843
#	136106
#	155210
#	173466
#	186613
#	204449
#	219247
#	236391
#	250891
#	267585
#	292353
#
# Disc length: 4068 seconds
#
# Revision: 0
# Processed by: cddbd v1.4PL0 Copyright (c) Steve Scherf et al.
# Submitted via: EasyCDDAExtractor 4.6.0.1
#
DISCID=f30fe212
DTITLE=Zdravko Colic - Vol. 2
DYEAR=1900
DGENRE=
TTITLE0=Ajde, ajde Jasmina
TTITLE1=Jako, jako srce zavodis
TTITLE2=Cija je ono zvezda
TTITLE3=Maslinasta zelena
TTITLE4=E draga draga
TTITLE5=Caje sukarije
TTITLE6=Ljubav je samo rec
TTITLE7=Gori vatra
TTITLE8=Ona spava
TTITLE9=Sinoc nisi bila tu
TTITLE10=Lose vino
TTITLE11=Zivis u oblacima mala
TTITLE12=Los glas
TTITLE13=Zagrli me
TTITLE14=Tvoje oci
TTITLE15=Ruska
TTITLE16=Jedna zima sa kristinom
TTITLE17=Oktobar je
EXTD=
EXTT0=
EXTT1=
EXTT2=
EXTT3=
EXTT4=
EXTT5=
EXTT6=
EXTT7=
EXTT8=
EXTT9=
EXTT10=
EXTT11=
EXTT12=
EXTT13=
EXTT14=
EXTT15=
EXTT16=
EXTT17=
PLAYORDER=
